<svg width="405" height="70" viewBox="0 0 405 70" fill="none" xmlns="http://www.w3.org/2000/svg">
<path d="M61 20.9C54.8 15.3 48.6 9.6 42.4 4C33.3 17.8 17.9 30.1 3.3 39C2.9 40.9 2.5 42.7 2 44.5C8.4 50.3 14.8 56.2 21.2 62C36.3 53.7 52.3 41.9 62 28.5C61.7 26 61.3 23.5 61 20.9Z" fill="#699635"/>
<path d="M22.4 54.6C16.1 48.8 9.8 43 3.5 37.3C19.2 28.4 32.4 16.3 42.1 2C48.4 7.8 54.7 13.5 61 19.3C51.3 33.6 38.1 45.7 22.4 54.6Z" fill="#83BF4F"/>
<path d="M20.8 50.8C16.6 47 12.4 43.1 8.2 39.3C8.5 39.1 8.7 39 9 38.8C9.8 38.3 10 37.4 9.3 36.7L8.7 36.1C21.4 28.3 32.4 18.3 41 6.69999L41.6 7.29999C42.3 7.89999 43.3 7.79999 43.9 7.09999C44.1 6.89999 44.2 6.59999 44.4 6.39999C48.6 10.2 52.8 14.1 57 17.9C56.8 18.1 56.7 18.4 56.5 18.6C55.9 19.4 56 20.5 56.7 21.2L57.3 21.8C48.7 33.3 37.7 43.3 25 51.1L24.4 50.5C23.7 49.9 22.5 49.8 21.6 50.3C21.3 50.5 21.1 50.6 20.8 50.8ZM10.9 39.4C14.3 42.5 17.7 45.6 21.2 48.8C22.5 48.4 24 48.5 25.2 49.1C36.8 41.7 46.9 32.5 55 21.8C54.3 20.7 54.2 19.3 54.7 18.1C51.3 15 47.9 11.9 44.4 8.69999C43.5 9.49999 42.2 9.59999 41.1 8.99999C33 19.8 22.9 29 11.3 36.4C11.9 37.4 11.8 38.6 10.9 39.4Z" fill="#699635"/>
<path d="M20 37.3C21.1 36.9 22.3 37 23.1 37.7C22.6 38.1 22 38.5 21.5 38.9C21.3 38.7 20.8 38.7 20.6 38.9C20.3 39.1 20.2 39.4 20.5 39.6C20.7 39.8 21.2 39.8 21.5 39.6C22.7 38.8 24.4 38.7 25.3 39.6C26 40.3 26.1 41.3 25.4 42.1C25.6 42.3 25.8 42.4 26 42.6C25.5 42.9 25 43.3 24.5 43.6C24.3 43.4 24.1 43.2 23.9 43.1C22.8 43.4 21.6 43.3 20.9 42.6C21.5 42.2 22 41.9 22.6 41.5C22.8 41.7 23.3 41.7 23.6 41.5C23.9 41.3 23.9 41 23.7 40.8C23.5 40.6 23.1 40.6 22.8 40.8C22.1 41.3 21.2 41.5 20.4 41.4C19.8 41.3 19.3 41.1 18.9 40.8C18.2 40.1 18.2 39.2 18.8 38.4C18.6 38.3 18.5 38.1 18.3 37.9C18.8 37.6 19.3 37.2 19.8 36.9C19.7 37 19.9 37.1 20 37.3ZM43.2 15.9C44.1 15.3 45.2 15.3 45.9 16L44.7 17.5C44.5 17.3 44.1 17.3 43.9 17.6C43.7 17.9 43.7 18.3 43.9 18.5C44.1 18.7 44.5 18.7 44.7 18.4C45.6 17.3 47.1 17.1 48 17.9C48.7 18.6 48.9 19.7 48.5 20.7C48.7 20.9 48.9 21 49.1 21.2C48.7 21.7 48.4 22.1 48 22.6C47.8 22.4 47.6 22.2 47.4 22.1C46.5 22.6 45.5 22.6 44.8 21.9C45.2 21.4 45.7 20.9 46.1 20.4C46.3 20.6 46.7 20.6 46.9 20.3C47.1 20 47.1 19.6 46.9 19.4C46.7 19.2 46.3 19.2 46.1 19.5C45.6 20.1 44.8 20.5 44.1 20.5C43.6 20.5 43.1 20.3 42.7 20C42 19.3 41.8 18.3 42.2 17.3C42 17.2 41.9 17 41.7 16.8C42.1 16.4 42.5 15.9 42.8 15.4C42.8 15.6 43 15.7 43.2 15.9ZM40.2 35.5C37 38.4 31.6 38.3 28.5 35.5C25.4 32.6 25.6 28.1 28.8 25.2C32 22.3 37 22 40.1 24.9C43.3 27.7 43.4 32.6 40.2 35.5Z" fill="#699635"/>
<path d="M21.8 24.5L40.7 41.8C42.9 40 44.9 38.1 46.9 36.1L28.1 18.8C26.1 20.7 24 22.6 21.8 24.5Z" fill="#FFDD7D"/>
<path d="M40.8 49.4C42.9 47.8 45 46.1 47 44.4V36C45 38 42.9 39.9 40.8 41.7V49.4Z" fill="#DBB471"/>
<path d="M12.1 24.7C13.2 24.3 14.1 23.7 15 23C15.9 22.3 16.7 21.6 17.6 20.8C18.5 20.1 19.4 19.3 20.4 18.8C21.4 18.2 22.7 17.9 23.8 18.1C22.7 18.3 21.7 18.8 20.8 19.5C19.9 20.1 19.1 20.9 18.2 21.6C17.3 22.3 16.4 23.1 15.4 23.7C14.4 24.3 13.2 24.7 12.1 24.7Z" fill="#8D9998"/>
<path d="M39.8 33.1C39.8 33.1 44.7 34.5 56.1 31.5C67.5 28.5 62.1 61.3 41.3 61.3C39 61.3 38.9 58.4 45.3 53.2C45.3 53.2 36.3 55.3 40.2 48.6C40.2 48.6 33.8 49.7 36.7 44.6C36.7 44.6 38 40.8 36.8 36.5C36.9 36.5 37.6 34.3 39.8 33.1Z" fill="#E8E8E8"/>
<path d="M61.5 34.7C61.7 43.5 54.7 58.1 40.8 58.1H40.6C39.3 60.2 39.9 61.4 41.3 61.4C57.1 61.3 64 42.5 61.5 34.7Z" fill="#D1D1D1"/>
<path d="M54.3 39.5C51.3 50.3 39.3 51.2 39.3 51.2C38.8 53.5 39.8 54.5 41.1 54.5C45.5 54.6 53.7 47.3 54.3 39.5ZM45.9 39.5C38.8 49.5 36.3 45.8 36.3 45.8C34.5 49.8 39.2 49.8 40 48.9C42.3 46.4 46 41.2 45.9 39.5Z" fill="#D1D1D1"/>
<path d="M40.5 58.4C41.7 56.8 43.2 55.5 44.7 54.2C46.2 52.9 47.7 51.6 49.2 50.2C50.6 48.8 52 47.2 53 45.4C54 43.6 54.5 41.5 54.3 39.5C54.1 41.5 53.4 43.4 52.3 45C51.2 46.6 49.9 48.1 48.5 49.5C47.1 50.9 45.6 52.2 44.2 53.7C42.7 55 41.4 56.6 40.5 58.4ZM39.3 51.2C39.7 50.1 40.3 49.2 41 48.3C41.7 47.4 42.4 46.6 43.2 45.7C43.9 44.8 44.7 43.9 45.2 42.9C45.8 41.9 46.1 40.6 45.9 39.5C45.7 40.6 45.2 41.6 44.5 42.5C43.9 43.4 43.1 44.2 42.4 45.1C41.7 46 40.9 46.9 40.3 47.9C39.7 48.9 39.3 50.1 39.3 51.2Z" fill="#8D9998"/>
<path d="M30.2 24.2C30.2 24.2 28.8 19.3 31.8 7.89999C34.8 -3.50001 2 1.89999 2 22.7C2 25 4.9 25.1 10.1 18.7C10.1 18.7 8 27.7 14.7 23.8C14.7 23.8 13.6 30.2 18.7 27.3C18.7 27.3 22.5 26 26.8 27.2C26.8 27.1 29 26.4 30.2 24.2Z" fill="#E8E8E8"/>
<path d="M28.6 2.5C19.8 2.3 5.2 9.30001 5.2 23.2V23.4C3.1 24.6 2 24.1 2 22.7C2 6.90001 20.8 4.79817e-06 28.6 2.5Z" fill="#D1D1D1"/>
<path d="M23.8 9.70001C13 12.7 12.1 24.7 12.1 24.7C9.8 25.2 8.8 24.2 8.8 22.9C8.7 18.5 16 10.3 23.8 9.70001ZM23.8 18.1C13.8 25.2 17.5 27.7 17.5 27.7C13.5 29.5 13.5 24.8 14.4 24C16.9 21.7 22.1 18 23.8 18.1Z" fill="#D1D1D1"/>
<path d="M4.9 23.5C6.5 22.3 7.8 20.8 9.1 19.3C10.4 17.8 11.7 16.3 13.1 14.8C14.5 13.4 16.1 12 17.9 11C19.7 10 21.8 9.50001 23.8 9.70001C21.8 9.90001 19.9 10.6 18.3 11.7C16.7 12.8 15.2 14.1 13.8 15.5C12.4 16.9 11.1 18.4 9.6 19.8C8.2 21.3 6.7 22.6 4.9 23.5Z" fill="#8D9998"/>
<path d="M12.1 24.7C13.2 24.3 14.1 23.7 15 23C15.9 22.3 16.7 21.6 17.6 20.8C18.5 20.1 19.4 19.3 20.4 18.8C21.4 18.2 22.7 17.9 23.8 18.1C22.7 18.3 21.7 18.8 20.8 19.5C19.9 20.1 19.1 20.9 18.2 21.6C17.3 22.3 16.4 23.1 15.4 23.7C14.4 24.3 13.2 24.7 12.1 24.7Z" fill="#8D9998"/>
<circle cx="40" cy="40" r="16" fill="white"/>
<mask id="mask0_3_52" style="mask-type:alpha" maskUnits="userSpaceOnUse" x="24" y="24" width="32" height="32">
<circle cx="40" cy="40" r="16" fill="#DEF2CC"/>
</mask>
<g mask="url(#mask0_3_52)">
<path d="M61 20.9C54.8 15.3 48.6 9.6 42.4 4C33.3 17.8 17.9 30.1 3.3 39C2.9 40.9 2.5 42.7 2 44.5C8.4 50.3 14.8 56.2 21.2 62C36.3 53.7 52.3 41.9 62 28.5C61.7 26 61.3 23.5 61 20.9Z" fill="#A30000"/>
<path d="M22.4 54.6C16.1 48.8 9.8 43 3.5 37.3C19.2 28.4 32.4 16.3 42.1 2C48.4 7.8 54.7 13.5 61 19.3C51.3 33.6 38.1 45.7 22.4 54.6Z" fill="#FF5F5F"/>
<path d="M20.8 50.8C16.6 47 12.4 43.1 8.2 39.3C8.5 39.1 8.7 39 9 38.8C9.8 38.3 10 37.4 9.3 36.7L8.7 36.1C21.4 28.3 32.4 18.3 41 6.69999L41.6 7.29999C42.3 7.89999 43.3 7.79999 43.9 7.09999C44.1 6.89999 44.2 6.59999 44.4 6.39999C48.6 10.2 52.8 14.1 57 17.9C56.8 18.1 56.7 18.4 56.5 18.6C55.9 19.4 56 20.5 56.7 21.2L57.3 21.8C48.7 33.3 37.7 43.3 25 51.1L24.4 50.5C23.7 49.9 22.5 49.8 21.6 50.3C21.3 50.5 21.1 50.6 20.8 50.8ZM10.9 39.4C14.3 42.5 17.7 45.6 21.2 48.8C22.5 48.4 24 48.5 25.2 49.1C36.8 41.7 46.9 32.5 55 21.8C54.3 20.7 54.2 19.3 54.7 18.1C51.3 15 47.9 11.9 44.4 8.69999C43.5 9.49999 42.2 9.59999 41.1 8.99999C33 19.8 22.9 29 11.3 36.4C11.9 37.4 11.8 38.6 10.9 39.4Z" fill="#A30000"/>
<path d="M20 37.3C21.1 36.9 22.3 37 23.1 37.7C22.6 38.1 22 38.5 21.5 38.9C21.3 38.7 20.8 38.7 20.6 38.9C20.3 39.1 20.2 39.4 20.5 39.6C20.7 39.8 21.2 39.8 21.5 39.6C22.7 38.8 24.4 38.7 25.3 39.6C26 40.3 26.1 41.3 25.4 42.1C25.6 42.3 25.8 42.4 26 42.6C25.5 42.9 25 43.3 24.5 43.6C24.3 43.4 24.1 43.2 23.9 43.1C22.8 43.4 21.6 43.3 20.9 42.6C21.5 42.2 22 41.9 22.6 41.5C22.8 41.7 23.3 41.7 23.6 41.5C23.9 41.3 23.9 41 23.7 40.8C23.5 40.6 23.1 40.6 22.8 40.8C22.1 41.3 21.2 41.5 20.4 41.4C19.8 41.3 19.3 41.1 18.9 40.8C18.2 40.1 18.2 39.2 18.8 38.4C18.6 38.3 18.5 38.1 18.3 37.9C18.8 37.6 19.3 37.2 19.8 36.9C19.7 37 19.9 37.1 20 37.3ZM43.2 15.9C44.1 15.3 45.2 15.3 45.9 16L44.7 17.5C44.5 17.3 44.1 17.3 43.9 17.6C43.7 17.9 43.7 18.3 43.9 18.5C44.1 18.7 44.5 18.7 44.7 18.4C45.6 17.3 47.1 17.1 48 17.9C48.7 18.6 48.9 19.7 48.5 20.7C48.7 20.9 48.9 21 49.1 21.2C48.7 21.7 48.4 22.1 48 22.6C47.8 22.4 47.6 22.2 47.4 22.1C46.5 22.6 45.5 22.6 44.8 21.9C45.2 21.4 45.7 20.9 46.1 20.4C46.3 20.6 46.7 20.6 46.9 20.3C47.1 20 47.1 19.6 46.9 19.4C46.7 19.2 46.3 19.2 46.1 19.5C45.6 20.1 44.8 20.5 44.1 20.5C43.6 20.5 43.1 20.3 42.7 20C42 19.3 41.8 18.3 42.2 17.3C42 17.2 41.9 17 41.7 16.8C42.1 16.4 42.5 15.9 42.8 15.4C42.8 15.6 43 15.7 43.2 15.9ZM40.2 35.5C37 38.4 31.6 38.3 28.5 35.5C25.4 32.6 25.6 28.1 28.8 25.2C32 22.3 37 22 40.1 24.9C43.3 27.7 43.4 32.6 40.2 35.5Z" fill="#A30000"/>
<path d="M21.8 24.5L40.7 41.8C42.9 40 44.9 38.1 46.9 36.1L28.1 18.8C26.1 20.7 24 22.6 21.8 24.5Z" fill="#FFDD7D"/>
<path d="M40.8 49.4C42.9 47.8 45 46.1 47 44.4V36C45 38 42.9 39.9 40.8 41.7V49.4Z" fill="#DBB471"/>
</g>
<path d="M53.0973 55.2644L51.5849 53.7519L53.8015 51.5359L55.3134 53.0489L53.0973 55.2644Z" fill="#B0BDC6" stroke="#333333"/>
<path d="M51.5829 53.049L53.0988 51.5331L55.3191 53.7511L53.8032 55.2671L51.5829 53.049Z" fill="#DFE9EF"/>
<path d="M50.8249 53.7481L53.7481 50.8242L54.6684 51.7444L51.7452 54.6691L50.8249 53.7481Z" fill="#B0BDC6"/>
<path d="M52.4199 28.091L52.4218 28.093C59.1898 34.7865 59.1929 45.7224 52.4208 52.4955C45.6476 59.1932 34.7095 59.1904 28.0155 52.4974C21.3149 45.7213 21.2471 34.7841 28.0125 28.093C34.786 21.394 45.7256 21.3967 52.4199 28.091ZM29.0672 51.518C35.2362 57.7649 45.2771 57.7612 51.5192 51.5192L51.5214 51.5169C57.6839 45.2754 57.6875 35.2379 51.5203 29.0695C45.3517 22.823 35.3116 22.8262 29.0694 29.0672C22.823 35.2358 22.8263 45.2759 29.0672 51.518Z" fill="#DFE9EF" stroke="#333333"/>
<path d="M51.5484 28.9625C45.3469 22.7609 35.2406 22.7609 28.9625 28.9625C22.7609 35.1641 22.7609 45.2703 28.9625 51.5485C35.1641 57.75 45.2703 57.75 51.5484 51.5485C57.75 45.3469 57.75 35.2406 51.5484 28.9625ZM50.7062 50.7063C44.9641 56.4484 35.5469 56.4484 29.8047 50.7063C24.0625 44.9641 24.0625 35.5469 29.8047 29.8047C35.5469 24.0625 44.9641 24.0625 50.7062 29.8047C56.4484 35.5469 56.4484 44.9641 50.7062 50.7063Z" fill="#B0BDC6"/>
<path opacity="0.6" d="M48.6391 43.8156C43.6625 48.7922 35.5469 48.7922 30.5703 43.8156C29.2687 42.5141 28.2734 40.9828 27.6609 39.2984C27.3547 42.9734 28.5797 46.725 31.3359 49.4813C36.3125 54.4578 44.4281 54.4578 49.4047 49.4813C53.0797 45.8063 53.9984 40.4469 52.3141 35.9297C52.0078 38.8391 50.7828 41.5953 48.6391 43.8156Z" fill="#A6AEB0"/>
<path d="M51.5331 56.8274L56.8389 51.5216L67.3969 62.0788L62.0911 67.3846L51.5331 56.8274Z" fill="#333333"/>
<path d="M52.7252 55.6369L55.6476 52.7122L66.2056 63.2679L63.2832 66.1918L52.7252 55.6369Z" fill="#575B5E"/>
<path d="M68.3922 61.5016C69.2344 62.3438 62.4203 69.2344 61.5016 68.3922L60.9656 67.8563C60.1234 67.0141 66.9375 60.1234 67.8562 60.9656L68.3922 61.5016Z" fill="#B0BDC6"/>
<path d="M67.2437 62.65C68.0859 63.4922 63.5687 68.0859 62.65 67.2437L62.1141 66.7078C61.2719 65.8656 65.7891 61.2719 66.7078 62.1141L67.2437 62.65Z" fill="#DFE9EF"/>
<path d="M92.704 53V17.96H102.352C105.488 17.96 107.952 18.776 109.744 20.408C111.536 22.008 112.432 24.216 112.432 27.032C112.432 28.632 112.096 30.04 111.424 31.256C110.784 32.44 109.856 33.368 108.64 34.04C107.456 34.68 106.016 34.984 104.32 34.952V34.28C106.144 34.28 107.712 34.648 109.024 35.384C110.368 36.088 111.408 37.128 112.144 38.504C112.88 39.848 113.248 41.448 113.248 43.304C113.248 45.288 112.832 47.016 112 48.488C111.168 49.928 109.984 51.048 108.448 51.848C106.912 52.616 105.072 53 102.928 53H92.704ZM96.4 49.544H102.592C104.736 49.544 106.416 48.984 107.632 47.864C108.88 46.712 109.504 45.16 109.504 43.208C109.504 41.192 108.88 39.576 107.632 38.36C106.416 37.112 104.736 36.488 102.592 36.488H96.4V49.544ZM96.4 33.176H102.352C104.304 33.176 105.84 32.648 106.96 31.592C108.08 30.536 108.64 29.096 108.64 27.272C108.64 25.448 108.08 24.024 106.96 23C105.872 21.944 104.336 21.416 102.352 21.416H96.4V33.176ZM131.133 53.48C128.157 53.48 125.773 52.584 123.981 50.792C122.221 49 121.341 46.568 121.341 43.496V26.6H125.133V43.496C125.133 45.576 125.661 47.208 126.717 48.392C127.805 49.544 129.277 50.12 131.133 50.12C133.021 50.12 134.509 49.544 135.597 48.392C136.685 47.208 137.229 45.576 137.229 43.496V26.6H141.021V43.496C141.021 46.568 140.125 49 138.333 50.792C136.541 52.584 134.141 53.48 131.133 53.48ZM158.667 53.48C156.043 53.48 153.915 52.6 152.283 50.84C150.683 49.08 149.883 46.712 149.883 43.736V35.912C149.883 32.904 150.683 30.52 152.283 28.76C153.883 27 156.011 26.12 158.667 26.12C160.875 26.12 162.651 26.728 163.995 27.944C165.371 29.16 166.059 30.792 166.059 32.84L165.051 31.256H165.963L165.915 25.496V17.96H169.707V53H165.915V48.344H164.907L166.059 46.76C166.059 48.84 165.371 50.488 163.995 51.704C162.651 52.888 160.875 53.48 158.667 53.48ZM159.867 50.168C161.755 50.168 163.227 49.592 164.283 48.44C165.371 47.256 165.915 45.624 165.915 43.544V36.056C165.915 33.976 165.371 32.36 164.283 31.208C163.227 30.024 161.755 29.432 159.867 29.432C157.947 29.432 156.443 30.008 155.355 31.16C154.267 32.312 153.723 33.944 153.723 36.056V43.544C153.723 45.656 154.267 47.288 155.355 48.44C156.443 49.592 157.947 50.168 159.867 50.168ZM182.216 61.64V58.184H190.232C191.736 58.184 192.84 57.832 193.544 57.128C194.28 56.424 194.648 55.352 194.648 53.912V50.84L194.744 45.848H193.88L194.792 44.744C194.792 46.728 194.136 48.312 192.824 49.496C191.512 50.68 189.752 51.272 187.544 51.272C184.856 51.272 182.728 50.392 181.16 48.632C179.592 46.84 178.808 44.456 178.808 41.48V35.864C178.808 32.888 179.592 30.52 181.16 28.76C182.728 27 184.856 26.12 187.544 26.12C189.752 26.12 191.512 26.712 192.824 27.896C194.136 29.048 194.792 30.616 194.792 32.6L193.928 31.496H194.696V26.6H198.44V53.912C198.44 56.344 197.72 58.232 196.28 59.576C194.872 60.952 192.856 61.64 190.232 61.64H182.216ZM188.648 47.96C190.536 47.96 192.008 47.384 193.064 46.232C194.152 45.048 194.696 43.416 194.696 41.336V36.056C194.696 33.976 194.152 32.36 193.064 31.208C192.008 30.024 190.536 29.432 188.648 29.432C186.728 29.432 185.24 30.008 184.184 31.16C183.128 32.312 182.6 33.944 182.6 36.056V41.336C182.6 43.448 183.128 45.08 184.184 46.232C185.24 47.384 186.728 47.96 188.648 47.96ZM217.525 53.48C215.477 53.48 213.701 53.08 212.197 52.28C210.693 51.448 209.525 50.28 208.693 48.776C207.861 47.272 207.445 45.528 207.445 43.544V36.056C207.445 34.04 207.861 32.296 208.693 30.824C209.525 29.32 210.693 28.168 212.197 27.368C213.701 26.536 215.477 26.12 217.525 26.12C219.573 26.12 221.349 26.536 222.853 27.368C224.357 28.168 225.525 29.32 226.357 30.824C227.189 32.296 227.605 34.04 227.605 36.056V40.712H211.189V43.544C211.189 45.688 211.733 47.352 212.821 48.536C213.941 49.688 215.509 50.264 217.525 50.264C219.221 50.264 220.597 49.928 221.653 49.256C222.741 48.584 223.429 47.608 223.717 46.328H227.509C227.157 48.536 226.085 50.28 224.293 51.56C222.501 52.84 220.245 53.48 217.525 53.48ZM223.861 38.168V36.056C223.861 33.912 223.317 32.264 222.229 31.112C221.141 29.928 219.573 29.336 217.525 29.336C215.509 29.336 213.941 29.928 212.821 31.112C211.733 32.264 211.189 33.912 211.189 36.056V37.736H224.245L223.861 38.168ZM249.186 53C246.978 53 245.266 52.424 244.05 51.272C242.834 50.088 242.226 48.424 242.226 46.28V30.056H234.738V26.6H242.226V19.16H246.066V26.6H256.674V30.056H246.066V46.28C246.066 48.456 247.106 49.544 249.186 49.544H256.194V53H249.186Z" fill="#333333"/>
<path d="M263.855 53V17.96H275.808C278.272 17.96 280.416 18.424 282.24 19.352C284.096 20.28 285.52 21.576 286.512 23.24C287.536 24.904 288.048 26.856 288.048 29.096C288.048 31.304 287.536 33.256 286.512 34.952C285.488 36.616 284.064 37.912 282.24 38.84C280.416 39.768 278.272 40.232 275.808 40.232H271.056V53H263.855ZM271.056 33.752H275.808C277.344 33.752 278.56 33.336 279.456 32.504C280.384 31.64 280.848 30.504 280.848 29.096C280.848 27.688 280.384 26.568 279.456 25.736C278.56 24.872 277.344 24.44 275.808 24.44H271.056V33.752ZM293.405 53V26.6H300.125V31.64H301.949L299.885 34.712C299.885 31.864 300.541 29.72 301.853 28.28C303.165 26.84 305.085 26.12 307.613 26.12C310.525 26.12 312.781 27 314.381 28.76C316.013 30.52 316.829 33 316.829 36.2V38.36H309.149V36.68C309.149 35.24 308.749 34.12 307.949 33.32C307.181 32.52 306.141 32.12 304.829 32.12C303.453 32.12 302.397 32.52 301.661 33.32C300.957 34.12 300.605 35.24 300.605 36.68V53H293.405ZM332.65 53.48C330.314 53.48 328.282 53.048 326.554 52.184C324.826 51.288 323.482 50.056 322.522 48.488C321.594 46.888 321.13 45.032 321.13 42.92V36.68C321.13 34.568 321.594 32.728 322.522 31.16C323.482 29.56 324.826 28.328 326.554 27.464C328.282 26.568 330.314 26.12 332.65 26.12C335.018 26.12 337.05 26.568 338.746 27.464C340.474 28.328 341.802 29.56 342.73 31.16C343.69 32.728 344.17 34.568 344.17 36.68V42.92C344.17 45.032 343.69 46.888 342.73 48.488C341.802 50.056 340.474 51.288 338.746 52.184C337.05 53.048 335.018 53.48 332.65 53.48ZM332.65 47.24C334.058 47.24 335.13 46.872 335.866 46.136C336.602 45.368 336.97 44.296 336.97 42.92V36.68C336.97 35.272 336.602 34.2 335.866 33.464C335.13 32.728 334.058 32.36 332.65 32.36C331.274 32.36 330.202 32.728 329.434 33.464C328.698 34.2 328.33 35.272 328.33 36.68V42.92C328.33 44.296 328.698 45.368 329.434 46.136C330.202 46.872 331.274 47.24 332.65 47.24ZM361.431 53.48C359.095 53.48 357.063 53.048 355.335 52.184C353.607 51.288 352.263 50.056 351.303 48.488C350.375 46.888 349.911 45.032 349.911 42.92V36.68C349.911 34.568 350.375 32.728 351.303 31.16C352.263 29.56 353.607 28.328 355.335 27.464C357.063 26.568 359.095 26.12 361.431 26.12C363.799 26.12 365.831 26.568 367.527 27.464C369.255 28.328 370.583 29.56 371.511 31.16C372.471 32.728 372.951 34.568 372.951 36.68V42.92C372.951 45.032 372.471 46.888 371.511 48.488C370.583 50.056 369.255 51.288 367.527 52.184C365.831 53.048 363.799 53.48 361.431 53.48ZM361.431 47.24C362.839 47.24 363.911 46.872 364.647 46.136C365.383 45.368 365.751 44.296 365.751 42.92V36.68C365.751 35.272 365.383 34.2 364.647 33.464C363.911 32.728 362.839 32.36 361.431 32.36C360.055 32.36 358.983 32.728 358.215 33.464C357.479 34.2 357.111 35.272 357.111 36.68V42.92C357.111 44.296 357.479 45.368 358.215 46.136C358.983 46.872 360.055 47.24 361.431 47.24ZM385.173 53V36.2H378.165V29.72H385.173V26.12C385.173 23.656 386.005 21.688 387.669 20.216C389.365 18.712 391.573 17.96 394.293 17.96H402.021V24.2H394.533C393.893 24.2 393.365 24.408 392.949 24.824C392.565 25.208 392.373 25.72 392.373 26.36V29.72H402.021V36.2H392.373V53H385.173Z" fill="#5D773F"/>
</svg>
